<svg width="101" height="101" viewBox="0 0 101 101" fill="none" xmlns="http://www.w3.org/2000/svg">
<path d="M100.999 50.5223C100.711 29.5043 87.8459 10.6837 68.159 3.17209C48.3162 -4.39147 24.9183 1.92795 11.5002 18.3252C-1.85294 34.6549 -3.87592 58.1819 6.99982 76.3895C17.8548 94.5582 39.1336 103.922 59.8594 100.189C83.491 95.9374 100.407 74.7039 100.981 51.0625C100.996 50.8829 101.002 50.7025 100.999 50.5223ZM14.9359 29.2991C23.69 14.6551 41.2111 6.60323 58.0311 9.83177C76.0535 13.2837 89.3054 28.1355 91.4868 45.9353H66.7073C64.5623 38.8289 58.3973 33.4679 50.4457 33.4679C42.7459 33.4679 36.1238 38.8315 34.0567 45.9353H9.40194C10.0269 40.0559 11.9146 34.381 14.9359 29.2991ZM58.3246 50.5249C57.8052 60.5897 42.5693 60.7585 42.5693 50.5249C42.5693 40.2912 57.8156 40.4548 58.3246 50.5249ZM64.5571 89.431C48.124 95.3244 29.4654 90.1712 18.3768 76.6856C13.3539 70.5244 10.2344 63.0332 9.39934 55.1274H34.036C36.0901 62.2416 42.7874 67.5948 50.4457 67.5948C58.4103 67.5948 64.5623 62.2235 66.7073 55.1274H91.4946C89.6118 70.4987 79.4658 84.0882 64.5597 89.431H64.5571Z" fill="url(#paint0_linear_1800_698)"/>
<defs>
<linearGradient id="paint0_linear_1800_698" x1="21.6244" y1="1.74088e-08" x2="25.5509" y2="101.961" gradientUnits="userSpaceOnUse">
<stop stop-color="#5C4E0A"/>
<stop offset="1" stop-color="#280B5B"/>
</linearGradient>
</defs>
</svg>
